<svg id="Group_11" data-name="Group 11" xmlns="http://www.w3.org/2000/svg" xmlns:xlink="http://www.w3.org/1999/xlink" width="1920" height="263" viewBox="0 0 1920 263">
  <defs>
    <clipPath id="clip-path">
      <rect id="Rectangle_8" data-name="Rectangle 8" width="1920" height="263" fill="none"/>
    </clipPath>
  </defs>
  <g id="Group_10" data-name="Group 10" clip-path="url(#clip-path)">
    <path id="Path_37" data-name="Path 37" d="M831.6,88.294c.314.275-1.029.385-3.537.374a4.289,4.289,0,0,0,.277.466c3.569.056,7.025-.636,3.26-.84" fill="#fff"/>
    <path id="Path_38" data-name="Path 38" d="M695.694,91.254c.52-.643,3.349-1.337-1-1.71-2.132.423-.619,1.577,1,1.71" fill="#fff"/>
    <path id="Path_39" data-name="Path 39" d="M818.668,87.572c-4.517.129-6.194.548-6.9,1.061,5.409-.04,4.5-.716,6.9-1.061" fill="#fff"/>
    <path id="Path_40" data-name="Path 40" d="M771.983,80.524c-6.3-.2-4.028.326-9.722.479-4.565-.545,1.527-.8-3.211-1.2-2.4.643-1.488,1.107-1.2,2.218-5.986-.018-7.139.45-6.892,1.061,5.094-.07,1.944-.976,8.22-.925-1.452.829-7.072,1.235-10.149,1.9,10.034-.32,2.782.99,9.4,1.094,1.378-.672-4.231-1.14-.9-1.553,2.558,0,2.661.379,5.228.381a39.585,39.585,0,0,0,5.372-1.5c-1.673-.632-4.969-.025-6.55-.515-.688-.9,8.358-.814,10.409-1.435" fill="#fff"/>
    <path id="Path_41" data-name="Path 41" d="M719.509,80.639c1.747-.116,6.5.073,6.092-.262-7.61-.382-.1-1.412-1.173-2.021-5.958.132-1.053,1.973-9.191,1.415-.118.763,10.284.088,4.272.868" fill="#fff"/>
    <path id="Path_42" data-name="Path 42" d="M727.53,79.4c8.038-.266,3.42-.14,7.616.183a7.216,7.216,0,0,1,2.387-.2c.139-.786-9.641-.64-10,.015" fill="#fff"/>
    <path id="Path_43" data-name="Path 43" d="M747.686,77.485c-2.838.463-9.368.232-10.965.5a78.732,78.732,0,0,0,11.433.275c-.089-.215-.8-.331-1.528-.445,2.038.011,3.235-.269,1.06-.334" fill="#fff"/>
    <path id="Path_44" data-name="Path 44" d="M118.651,88.762c-.094-.156-.177-.312-.28-.467-5.35.522-3.252-.942-5.225-.38-1.439.9.763.56,4.179.713.112.093.285.181,1.326.134" fill="#fff"/>
    <path id="Path_45" data-name="Path 45" d="M125.705,88.011a49.8,49.8,0,0,1-5.02-.068c-.48.587,5.711.812,5.02.068" fill="#fff"/>
    <path id="Path_46" data-name="Path 46" d="M760.31,75.543c-5.745-.142-2.339.64-4.5.861,4.647.03,2.781-.6,4.5-.861" fill="#fff"/>
    <path id="Path_47" data-name="Path 47" d="M59.42,88.051c1.572-.227,1.462-.794-1.692-.756-.175.37-2.247.714,1.692.756" fill="#fff"/>
    <path id="Path_48" data-name="Path 48" d="M64.8,86.546a27.973,27.973,0,0,0-7.148.594c2.446-.039,1.807.4,5.115.227-2.128-.557,3.239-.358,2.033-.821" fill="#fff"/>
    <path id="Path_49" data-name="Path 49" d="M711.17,74.974c.975-.6-4.352-.233-5.308-.539.765-.262,6.076-.068,4.682-.549-5.816.407-7.62.189-11.065.345,1.517.007.872.16.188.312,3.554-.034,6.7.248,11.5.431" fill="#fff"/>
    <path id="Path_50" data-name="Path 50" d="M685.4,73.687q-.42.747,5.312.539c-.028-.391-1-.636-2.93-.736a7.036,7.036,0,0,1-2.382.2" fill="#fff"/>
    <path id="Path_51" data-name="Path 51" d="M153.589,82.195c.949-.608-2.13-1.465-5.505-.848,5.177.07-.038.761,5.505.848" fill="#fff"/>
    <path id="Path_52" data-name="Path 52" d="M898.014,69.253c2.857-.78-3.721-.627-5.036-.07,1.7.02,2.48.18,5.036.07" fill="#fff"/>
    <path id="Path_53" data-name="Path 53" d="M906.587,68.948c.144-.415-2.812-.357-5.213-.382.176.213-.383.351-.968.489l6.181-.107" fill="#fff"/>
    <path id="Path_54" data-name="Path 54" d="M923.857,68.494c-2.425-.471,5.48-.85-.453-.779-2.047.039-.448.444-2.211.51-1.248.022-2.481.044-3.719.064-.966.544,3.992.176,6.383.205" fill="#fff"/>
    <path id="Path_55" data-name="Path 55" d="M126.252,78.269c-.33-.943-1.667-1.073-1.1-1.867-4.451.391-1.632,1.793,1.1,1.867" fill="#fff"/>
    <path id="Path_56" data-name="Path 56" d="M134.027,76.564c-.863-.524-.026-.88.5-1.264-3.948.051-4.765,1.26-.5,1.264" fill="#fff"/>
    <path id="Path_57" data-name="Path 57" d="M227.948,72.44c-1.014-.714-1.128-.939-4.616-1.491-1.154.226-.889.592-2.013.819,4.784-.172,3.514.586,6.629.672" fill="#fff"/>
    <path id="Path_58" data-name="Path 58" d="M32.819,74.691c-2.459-.44.814-1.124-3.107-1.045-2.6.246.7,1.008,3.107,1.045" fill="#fff"/>
    <path id="Path_59" data-name="Path 59" d="M700.4,60.869c-.333-.285-1.105-.506-2.836-.58-.165.374-4.138.364-3.26.842a115.1,115.1,0,0,1,13.994.388c-4.311-.219-4.9.648-2.117.665a11.163,11.163,0,0,1,4.786-.4c-.192.371-3.644.414-4.609.705,8.857-.038,9.507-1.567,20.512-1.293a39.875,39.875,0,0,1-8.158-1.116c-.093.558.407.8-.682.954-1.476-.57-5.045-.029-8.765-.006a24.471,24.471,0,0,0-4.085-.558c-4.127-.123-.652.52-4.78.4" fill="#fff"/>
    <path id="Path_60" data-name="Path 60" d="M694.578,61.6c-2.17.26-2.811.892,1.78.912-1.733-.5.493-.678-1.78-.912" fill="#fff"/>
    <path id="Path_61" data-name="Path 61" d="M169.881,71.551c-2.25-.826.836-1.831-.31-2.664-3.068.032-5.989.08-7.361.284,4.872.472-.7,2.162,7.671,2.38" fill="#fff"/>
    <path id="Path_62" data-name="Path 62" d="M273.212,68.52c.961-.544-4-.175-6.388-.2-1.044.442.433,1.058,4.454,1.181.653-.555-1.77-.633-3.039-.892,2.321-.3,1.6-.013,4.973-.085" fill="#fff"/>
    <path id="Path_63" data-name="Path 63" d="M224.516,68.729c-6.714.512,1.522.016.552.932,3.393.051,2.219-.362,3.448-.529-4.266.318-1.06-.515-4-.4" fill="#fff"/>
    <path id="Path_64" data-name="Path 64" d="M224.339,68.418c6.324-.3,2.882-1.4-1.006-1.711,2.138.557-3.214.358-2.008.822,1.093.325,6.12.416,3.014.889" fill="#fff"/>
    <path id="Path_65" data-name="Path 65" d="M266.786,66.118c-.213-.363-.432-.723-.63-1.088a40.58,40.58,0,0,0-7.163.6c8.516-.382,3.7.4,7.793.493" fill="#fff"/>
    <path id="Path_66" data-name="Path 66" d="M224.365,64.178c-.827-.493.837-1.373-3.3-1.357,3.379.481-2,1.3,3.3,1.357" fill="#fff"/>
    <path id="Path_67" data-name="Path 67" d="M248.779,63.131c1.038-.432,4.6-.607,5.647-1.038-6.4.306-4.056-.733-9.125-.63,3.288.687,3.924,1.132,3.478,1.668" fill="#fff"/>
    <path id="Path_68" data-name="Path 68" d="M161.69,64c1.9.16,2.033.594,5.328.539A8.014,8.014,0,0,0,161.69,64" fill="#fff"/>
    <path id="Path_69" data-name="Path 69" d="M222.211,62.645c1.972-.286.673-.821-1.79-.912.114.207-2.081.18-2.274.355,4.725-.334.825.664,4.064.557" fill="#fff"/>
    <path id="Path_70" data-name="Path 70" d="M273.881,61.128c1.648-.026,3.295-.056,4.953-.084A5.869,5.869,0,0,0,275.716,60c-2.579.177-2.54.621-1.835,1.129" fill="#fff"/>
    <path id="Path_71" data-name="Path 71" d="M272.372,60.683c-1.625-.746.886-1.079,2.892-1.462-2.376.007-2.64.223-4.86.24,2.293.506-3.956,1.276,1.968,1.222" fill="#fff"/>
    <path id="Path_72" data-name="Path 72" d="M67.87,64.039c-1.361-.434-1.9-.508.786-.8-6.973.209-2.1-.46-.371-.62l-7.423.128c.229.413-3.218.454-4.6.7,3.092.146,2.245.9,6.763.827-.765-.63,1.708,0,4.848-.241" fill="#fff"/>
    <path id="Path_73" data-name="Path 73" d="M220.056,61.113l3.724-.065c1.325-.56-3.4-1.037-5.327-.535,2.907-.009,3.1.363,1.6.6" fill="#fff"/>
    <path id="Path_74" data-name="Path 74" d="M159.083,61.687c-.161-.275,2.808-.961-.631-1.087.171.277-2.808.962.631,1.087" fill="#fff"/>
    <path id="Path_75" data-name="Path 75" d="M215.159,59.153c.575.478,3.816.548,5.505.85-.5-.488-1.417-.912-5.505-.85" fill="#fff"/>
    <path id="Path_76" data-name="Path 76" d="M336.381,56.759c-2.71.022-2.888-.345-2.94-.735-1.84.059-4.589.023-4.854.241,3.895.129,4.222.384,1.7.756,2.634.039,4.825.193,6.1-.262" fill="#fff"/>
    <path id="Path_77" data-name="Path 77" d="M164.194,59.716c-.324-.844-8-.1-8.578.3,3.953.011,4.209-.353,8.578-.3" fill="#fff"/>
    <path id="Path_78" data-name="Path 78" d="M223.288,58.074c-5.812.026-5.489.089-10.082-.142-.024.1-.087.188-1.156.177.059.1.122.207.174.312,3.129-.014,9.254.2,11.064-.347" fill="#fff"/>
    <path id="Path_79" data-name="Path 79" d="M355.2,54.709c2.927-1.074-16.058-.195-11.15.192,1.743-.42,8.637-.212,11.15-.192" fill="#fff"/>
    <path id="Path_80" data-name="Path 80" d="M261.927,55.682c.516-.241,1.611-.422,2.107-.663-2.309.073-2.828-.129-5.036-.071.031.388.22.757,2.929.734" fill="#fff"/>
    <path id="Path_81" data-name="Path 81" d="M197.422,56.633c.14-.66,1.366-1.1-.833-1.4-1.056.334-5.318.34-4.5.864,1.965.151,1.842.621,5.333.536" fill="#fff"/>
    <path id="Path_82" data-name="Path 82" d="M601.863,48.588c-.162.228-1.889.3-2.2.51,6.12-.393,2.959.1,7.621.183-3.018-.585,1.123-1.091.149-1.888-4.916.116-13.109,1.037-6.709,1.373-.16-.166.341-.406,1.139-.178" fill="#fff"/>
    <path id="Path_83" data-name="Path 83" d="M221.094,54.343a8.892,8.892,0,0,0,4.281.867c-.86-.375-.52-.937-4.281-.867" fill="#fff"/>
    <path id="Path_84" data-name="Path 84" d="M361.861,51.141c-4.854-.092-7.406.8-4.395,1.019-.55-.544,3.882-.584,4.395-1.019" fill="#fff"/>
    <path id="Path_85" data-name="Path 85" d="M265.613,53.42c-1.388-1.6,6.19-3.078,5.054-4.169-4.836.974-9.674,2.729-5.054,4.169" fill="#fff"/>
    <path id="Path_86" data-name="Path 86" d="M691.8,44.06c-3.932.049-7.47.891-4.311,1.173,1.914-.343,6.032-.463,4.311-1.173" fill="#fff"/>
    <path id="Path_87" data-name="Path 87" d="M409.275,48.756c5.264-.19,1.9.95,7.877.648-2.579-.647-7.263-1.416-1.178-2.019a70.613,70.613,0,0,0-7.418.127c2.172.461.825.675.719,1.244" fill="#fff"/>
    <path id="Path_88" data-name="Path 88" d="M404.319,48.841c-.748.023-1.451.049-1.15.176l2.482-.041c-.1-.156.9-.2,1.055-.333-2.4-.026-3.31-.281-6.383-.205-1.593.587,4.266.022,4,.4" fill="#fff"/>
    <path id="Path_89" data-name="Path 89" d="M698.8,43.154c-3.255-.293-3.263-.77.681-.952-7.168-.25-8.519.48-9.284,1.258a54.593,54.593,0,0,0,8.6-.306" fill="#fff"/>
    <path id="Path_90" data-name="Path 90" d="M478.274,46.943c-.873-.261.975-.94-1.78-.911-.943.13-2.679,1.132,1.78.911" fill="#fff"/>
    <path id="Path_91" data-name="Path 91" d="M301.65,48.72c1.783-.3-.663-.9-5.412-.693.926.366,1.526.782,5.412.693" fill="#fff"/>
    <path id="Path_92" data-name="Path 92" d="M297.377,47.852c.1-.524-3.093-.541-4.256-.869-2.158.314,1.224.377.546.932,1.234-.022,2.477-.042,3.71-.063" fill="#fff"/>
    <path id="Path_93" data-name="Path 93" d="M356.8,53.382A15.078,15.078,0,0,0,354.2,53a15.79,15.79,0,0,0,2.6.383" fill="#fff"/>
    <path id="Path_94" data-name="Path 94" d="M105.891,88.351c1.505-.044,2.9-.1,2.3-.352-6.978.19-2.736.789-1.934.976,1.3-.257,1.2-.418-.37-.624" fill="#fff"/>
    <path id="Path_95" data-name="Path 95" d="M803.315,91.292c.182-.249,2.656-.154,3.725-.064.5-.242,1.605-.424,2.121-.665-3.98-.048-7.961.644-5.846.729" fill="#fff"/>
    <path id="Path_96" data-name="Path 96" d="M694.057,88.456c3.02-.465-.046-1.155-1.884-1.067,2.69.332-1.735.792,1.884,1.067" fill="#fff"/>
    <path id="Path_97" data-name="Path 97" d="M690.864,83.016c-.312-1.316,9.49.113,12.036-.836-3.035-.662-7.369.685-8.958-.316-3.937.042-7.469.122-8.484.459,10.058-.352-.661.681,5.406.693" fill="#fff"/>
    <path id="Path_98" data-name="Path 98" d="M129.014,89.368c1.917-.784,7.361-1.982,5.971-2.613-.169.753-8.952.632-3.079,1.151-2.978.247-11.653,1.376-2.892,1.462" fill="#fff"/>
    <path id="Path_99" data-name="Path 99" d="M131.419,84.932c-2.083.592-.826,1.891-7.854,1.548.058.441,3.732.329,5.317.535,1.656-.124-.167-.6,2.116-.663,1.461,0,1.491.222,1.51.445a24.674,24.674,0,0,0,4.78-.4c-5.86.193-1.559-.662-5.6-1a27.563,27.563,0,0,1,6.3.05c.043.2-1.472.242-.974.486,5.194-.526,3.522.442,7.8.5,2.394-.353-1.228-.528-2.94-.733,1.011-.535,2.924-.973,6.8-1.217.081.268,1.173.383,2.747.422,1.238-.264,3.845-.391,3.261-.84-3.018-.01-2.521.331-6.1.262,3.572-.437-1.3-.718,4.676-.55.176-.372,2.056-.684-.547-.934-2.388.2-4.835.39-7.158.594,1.847,0,1.361.357,1.608.6-3.828-.092-2,.383-2.116.665a34.179,34.179,0,0,0-3.626.219c-.155-.485-1.066-.854-3.111-1.046-.573.5-3.624.326-4.958.085-.21.425-8.059.832-4.317,1.173a4.654,4.654,0,0,1,2.388-.2" fill="#fff"/>
    <path id="Path_100" data-name="Path 100" d="M14.679,90.705c1.531-.643,3.519-1.1,8.125-1.082-2.345.024-1.162-.5-3.99-.4-1.182.382-4.932-.138-6.01.418,5.971-.019-1.164,1,1.875,1.066" fill="#fff"/>
    <path id="Path_101" data-name="Path 101" d="M724.141,77.891c.117.093.3.181,1.337.133-.062-.1-.13-.207-.183-.31-.133-.094-.29-.181-1.331-.133-.822.47-1.755.206-4.858.239a3.205,3.205,0,0,0,.187.312c1.238-.023,1.549.1,2.559.113a7.217,7.217,0,0,1,2.289-.354" fill="#fff"/>
    <path id="Path_102" data-name="Path 102" d="M698.657,72.832c4.909-.255,2.642-.584,5.555-1.195a31.052,31.052,0,0,1-5.131-.224c-.225-.171,1.654-.273-.186-.312-.561.666-7.551.986-9.818.326.372.415-4.313,1.594-1.751,1.288,1.267-.685,4.029-.307,8.406-.617-1.142.625,3.484-.2,2.925.734" fill="#fff"/>
    <path id="Path_103" data-name="Path 103" d="M178.067,74.865c-4.617-1.567,1.462-1.9,10.142-1.9-1.584-.758.149-1.909-4.708-1.648,1.739.3-.376,1.092,3.288,1.356a114.4,114.4,0,0,1-12.376.212c.805.6-.318,1.444,3.654,1.98" fill="#fff"/>
    <path id="Path_104" data-name="Path 104" d="M259.4,68.445c1.806.656.288.509-.612,1.108,3.833-.213,4.535-1.106.612-1.108" fill="#fff"/>
    <path id="Path_105" data-name="Path 105" d="M247.645,69.745c4.413-.043,2.013-.771,7.075-.751,1.134.41-2.295.357-2.122.666,1.652-.029,3.309-.058,4.947-.085-.014-.506-2.568-.62-1.957-1.222.591-.281,5.877-.089,6.018-.417-1.926,0-.339-.254,1.061-.333.022.389,1,.633,2.924.737-.749-.641-6.272-1.629.144-1.889-.758,0-1.476,0-1.337-.135-.118-.093-.286-.18-1.311-.134-2.963.269-2.692.491-3.359.686-1.638.026-1.3-.254-2.665-.268.016.343-2.925.388-6.013.418-1.371.794-.805,1.678-3.4,2.727" fill="#fff"/>
    <path id="Path_106" data-name="Path 106" d="M166.444,67.842c-4.588-.192-3.822-1.814-3.807-.092.368.26,4.847,1.194,2.944.736-.262-.27-.009-.488.863-.644" fill="#fff"/>
    <path id="Path_107" data-name="Path 107" d="M271.863,61.948c-.344-.284-1.116-.5-2.846-.578-4.414.173,3.974,2.027-5.392,1.505a4.755,4.755,0,0,0,1.8.912c.805-.539,2.686-.184,4.953-.085,3.193-.639-4.024-1.444,1.485-1.754" fill="#fff"/>
    <path id="Path_108" data-name="Path 108" d="M471.675,48.469c-.2-.2-1.732-.189-1.514-.445,1.882.142,3.125.116,3.615-.22-2.031.033-.943-.419-2.748-.423-2.081.325-2.168,1.423.647,1.088" fill="#fff"/>
    <path id="Path_109" data-name="Path 109" d="M241.826,49.121c-1.267-.148-4.61.028-4.007-.4.693-.014,1.337-.152-.083-.157-.816.47-1.756.207-4.854.241-1.6.586,4.257.022,3.976.4-2.1.082,1.929.51-3.444.529-3.183.04-2.117-.576-5.317-.537-1.952.243.107.888-1.846,1.13,6.2-.28,4.221,2,12.613,2.3,1.872-1.364.382-2.439,2.962-3.5" fill="#fff"/>
    <path id="Path_110" data-name="Path 110" d="M248.79,48.214a20.5,20.5,0,0,1,3.907.247c2.768-.412-2.175-.382-2.929-.734.422-.09,5.878-.334,2.289-.354-1.582.036-1.605.228-3.626.22.133.425,2.254.276.359.621" fill="#fff"/>
    <path id="Path_111" data-name="Path 111" d="M416.013,49.582c-4.548-.167-.446.54-3.444.532.82-1.1-4.575-.3-1.967-1.224-7.322.457-4.219,2.106,2.505,2.156-.489.4-4.783,1.163-1.639,1.441,3.356-.343,6.4.812,7.108,1.448-1.854.058-4.615.023-4.874.24,10.182-.2,5.309,2.087,10.121,2.338-.757-2.526-10.133-4.483-7.81-6.931" fill="#fff"/>
    <path id="Path_112" data-name="Path 112" d="M291.63,38.058c8.65.047,3.97,1.271,9.677,1.56-2.934.421-6.118-.092-7.256.438,1.917.669,9.441.468,9.583,1.406-2.46.045-1.312.452-4.755.4,1.964.652.766.685-.518,1.264,8.335.313.709,2.745,10.583,3.117-2.922-1.237-9.242-4.138.9-4.883,1.762.173,4.734.125,4.859-.241-1.873-.1-4.864-.042-4.075-.558,14.876-.949,2.227-3.925-2.912-4.976a18.429,18.429,0,0,0,3.615-.219c-4.87-.153-6.1-.866-10.639-1.073-2.279.336-1.784.582-.692.954-2.056.036-4.124.071-6.184.1-7.049,1.05,3.658,2.254-2.182,2.709" fill="#fff"/>
    <path id="Path_113" data-name="Path 113" d="M1433.775,75.865q-.419,1.362,5.314,1.038c-.029-.715-1-1.172-2.932-1.374-.2.227-.916.354-2.382.336" fill="#fff"/>
    <path id="Path_114" data-name="Path 114" d="M901.952,86.166c.947-1.1-2.133-2.7-5.508-1.605,5.179.179-.035,1.392,5.508,1.605" fill="#fff"/>
    <path id="Path_115" data-name="Path 115" d="M1646.394,69.856c2.855-1.4-3.723-1.184-5.037-.177a32.358,32.358,0,0,0,5.037.177" fill="#fff"/>
    <path id="Path_116" data-name="Path 116" d="M1649.753,68.634c.176.39-.383.638-.967.884,2.062-.046,4.114-.089,6.181-.134.143-.759-2.813-.681-5.214-.75" fill="#fff"/>
    <path id="Path_117" data-name="Path 117" d="M1672.237,68.725c-2.426-.885,5.478-1.5-.455-1.429-2.047.05-.446.807-2.21.911-1.248.028-2.481.054-3.719.08-.965.986,3.993.362,6.384.438" fill="#fff"/>
    <path id="Path_118" data-name="Path 118" d="M874.606,78.714c-.332-1.728-1.669-1.98-1.105-3.425-4.45.67-1.627,3.262,1.105,3.425" fill="#fff"/>
    <path id="Path_119" data-name="Path 119" d="M882.377,75.673c-.865-.968-.028-1.611.5-2.308-3.949.055-4.763,2.26-.5,2.308" fill="#fff"/>
    <path id="Path_120" data-name="Path 120" d="M971.673,66.285c-1.153.4-.887,1.074-2.011,1.479,4.784-.268,3.516,1.105,6.632,1.295-1.016-1.317-1.131-1.729-4.621-2.774" fill="#fff"/>
    <path id="Path_121" data-name="Path 121" d="M781.157,71.245c-2.461-.828.812-2.048-3.109-1.941-2.6.423.707,1.851,3.109,1.941" fill="#fff"/>
    <path id="Path_122" data-name="Path 122" d="M1448.751,52.568c-.334-.525-1.107-.936-2.837-1.088-.165.681-4.139.624-3.259,1.507a63.308,63.308,0,0,1,14,.848c-4.312-.444-4.9,1.137-2.115,1.195.284-.342,3.4-1.426,4.784-.679-.19.677-3.642.722-4.606,1.245,8.856.018,9.5-2.773,20.509-2.163a23.7,23.7,0,0,1-8.161-2.121c-.091,1.019.409,1.471-.679,1.738-1.478-1.058-5.046-.1-8.767-.1-.567-.573-2.737-.707-4.086-1.061-4.127-.266-.651.944-4.779.677" fill="#fff"/>
    <path id="Path_123" data-name="Path 123" d="M1442.927,53.843c-2.169.454-2.809,1.6,1.782,1.685-1.734-.932.492-1.235-1.782-1.685" fill="#fff"/>
    <path id="Path_124" data-name="Path 124" d="M918.221,66.859c-2.251-1.533.832-3.339-.316-4.875a40.836,40.836,0,0,0-7.361.446c4.874.912-.689,3.948,7.677,4.429" fill="#fff"/>
    <path id="Path_125" data-name="Path 125" d="M1021.552,62.337c.96-.986-4-.359-6.389-.436-1.043.8.435,1.94,4.457,2.2.651-1.007-1.771-1.175-3.041-1.66,2.319-.525,1.6-.008,4.973-.107" fill="#fff"/>
    <path id="Path_126" data-name="Path 126" d="M972.853,62.237c-6.713.871,1.522.043.553,1.71,3.4.128,2.218-.64,3.448-.934-4.265.54-1.061-.952-4-.776" fill="#fff"/>
    <path id="Path_127" data-name="Path 127" d="M972.675,61.667c6.322-.489,2.878-2.541-1.01-3.139,2.139,1.04-3.213.622-2.006,1.483,1.094.6,6.121.821,3.016,1.656" fill="#fff"/>
    <path id="Path_128" data-name="Path 128" d="M1007.323,56.9c8.517-.614,3.705.779,7.8.979-.214-.666-.434-1.328-.633-2a22.835,22.835,0,0,0-7.163,1.018" fill="#fff"/>
    <path id="Path_129" data-name="Path 129" d="M972.691,53.912c-.829-.91.833-2.5-3.307-2.514,3.38.912-2,2.364,3.307,2.514" fill="#fff"/>
    <path id="Path_130" data-name="Path 130" d="M997.1,52.238c1.039-.779,4.6-1.065,5.647-1.842-6.405.5-4.059-1.381-9.128-1.243,3.29,1.289,3.926,2.108,3.481,3.085" fill="#fff"/>
    <path id="Path_131" data-name="Path 131" d="M910.012,52.962c1.9.312,2.034,1.106,5.329,1.038-.254-.586-2.853-2.081-5.329-1.038" fill="#fff"/>
    <path id="Path_132" data-name="Path 132" d="M970.533,51.086c1.971-.5.671-1.495-1.792-1.685.114.379-2.08.308-2.273.626,4.725-.564.827,1.222,4.065,1.059" fill="#fff"/>
    <path id="Path_133" data-name="Path 133" d="M1022.2,48.824c1.648-.034,3.3-.07,4.953-.106a4.745,4.745,0,0,0-3.121-1.94c-2.579.3-2.539,1.111-1.832,2.046" fill="#fff"/>
    <path id="Path_134" data-name="Path 134" d="M1020.693,47.995c-1.627-1.381.883-1.965,2.888-2.646-2.376-.012-2.64.382-4.859.39,2.3.949-3.954,2.3,1.971,2.256" fill="#fff"/>
    <path id="Path_135" data-name="Path 135" d="M816.185,52.11c-1.363-.808-1.906-.949.784-1.454-6.972.313-2.1-.861-.372-1.138-2.475.055-4.942.108-7.424.161.231.758-3.215.8-4.6,1.245,3.093.3,2.249,1.665,6.766,1.579-.765-1.159,1.709.012,4.848-.393" fill="#fff"/>
    <path id="Path_136" data-name="Path 136" d="M968.374,48.263l3.725-.082c1.324-1.011-3.408-1.931-5.329-1.032,2.907.014,3.1.7,1.6,1.114" fill="#fff"/>
    <path id="Path_137" data-name="Path 137" d="M907.4,48.71c-.162-.5,2.806-1.73-.634-1.994.173.507-2.806,1.732.634,1.994" fill="#fff"/>
    <path id="Path_138" data-name="Path 138" d="M963.472,44.63c.576.88,3.817,1.039,5.508,1.61-.506-.9-1.42-1.683-5.508-1.61" fill="#fff"/>
    <path id="Path_139" data-name="Path 139" d="M1078.6,41.869c2.634.1,4.827.4,6.1-.419-2.71.013-2.889-.66-2.942-1.373-1.839.088-4.59-.005-4.853.393,3.9.273,4.223.743,1.7,1.4" fill="#fff"/>
    <path id="Path_140" data-name="Path 140" d="M912.506,45.155c-.326-1.546-8-.269-8.578.47,3.953.059,4.209-.6,8.578-.47" fill="#fff"/>
    <path id="Path_141" data-name="Path 141" d="M971.6,42.736a67.271,67.271,0,0,1-10.083-.359c-.024.175-.087.343-1.155.311.058.191.122.382.174.573,3.129,0,9.254.465,11.064-.525" fill="#fff"/>
    <path id="Path_142" data-name="Path 142" d="M1092.364,38.126c1.74-.75,8.636-.3,11.147-.241,2.927-1.934-16.058-.515-11.147.241" fill="#fff"/>
    <path id="Path_143" data-name="Path 143" d="M1010.235,38.743c.516-.436,1.61-.756,2.105-1.192-2.308.112-2.828-.265-5.036-.18.033.711.222,1.388,2.931,1.372" fill="#fff"/>
    <path id="Path_144" data-name="Path 144" d="M945.728,39.844c.139-1.206,1.364-1.99-.836-2.569-1.056.6-5.317.57-4.5,1.536,1.965.295,1.843,1.153,5.334,1.033" fill="#fff"/>
    <path id="Path_145" data-name="Path 145" d="M973.68,37.518c-.861-.695-.524-1.72-4.284-1.628,1.174.613,1.23,1.529,4.284,1.628" fill="#fff"/>
    <path id="Path_146" data-name="Path 146" d="M1110.164,31.426c-4.855-.215-7.4,1.389-4.393,1.819-.552-1,3.881-1.029,4.393-1.819" fill="#fff"/>
    <path id="Path_147" data-name="Path 147" d="M1018.959,27.067c-4.833,1.733-9.667,4.9-5.042,7.575-1.393-2.945,6.181-5.568,5.042-7.575" fill="#fff"/>
    <path id="Path_148" data-name="Path 148" d="M1157.577,27.533c5.263-.3,1.9,1.756,7.879,1.264-2.581-1.211-7.268-2.664-1.183-3.705-1.99-.342-5.373.023-7.419.158,2.173.864.828,1.244.723,2.283" fill="#fff"/>
    <path id="Path_149" data-name="Path 149" d="M1152.619,27.639c-.748.034-1.45.075-1.149.311.829-.016,1.652-.034,2.482-.052-.095-.286.9-.364,1.054-.6-2.4-.072-3.312-.548-6.384-.439-1.591,1.057,4.267.083,4,.777" fill="#fff"/>
    <path id="Path_150" data-name="Path 150" d="M1226.576,24.9c-.875-.486.971-1.71-1.783-1.683-.943.227-2.677,2.042,1.783,1.683" fill="#fff"/>
    <path id="Path_151" data-name="Path 151" d="M1049.943,26.4c1.783-.524-.665-1.645-5.413-1.32.927.679,1.527,1.444,5.413,1.32" fill="#fff"/>
    <path id="Path_152" data-name="Path 152" d="M1045.669,24.772c.1-.957-3.095-1.02-4.258-1.632-2.157.554,1.224.7.548,1.71,1.234-.027,2.477-.052,3.71-.078" fill="#fff"/>
    <path id="Path_153" data-name="Path 153" d="M1105.109,35.475a9.036,9.036,0,0,0-2.6-.726,9.394,9.394,0,0,0,2.6.726" fill="#fff"/>
    <path id="Path_154" data-name="Path 154" d="M1447.033,74.432c4.909-.419,2.642-1.041,5.553-2.131a17.175,17.175,0,0,1-5.132-.461c-.226-.316,1.653-.482-.187-.572-.558,1.212-7.55,1.729-9.817.5.373.763-4.31,2.873-1.749,2.339,1.266-1.24,4.029-.522,8.4-1.046-1.14,1.132,3.484-.332,2.927,1.372" fill="#fff"/>
    <path id="Path_155" data-name="Path 155" d="M922.756,69.344c.8,1.11-.315,2.638,3.659,3.658-4.62-2.912,1.458-3.466,10.139-3.375-1.588-1.4.144-3.49-4.715-3.061,1.741.572-.372,1.993,3.293,2.513-2.6.619-9.231.45-12.376.265" fill="#fff"/>
    <path id="Path_156" data-name="Path 156" d="M1007.129,64.084c3.833-.352,4.533-1.979.61-2.021,1.807,1.218.288.935-.61,2.021" fill="#fff"/>
    <path id="Path_157" data-name="Path 157" d="M995.986,64.324c4.413-.034,2.012-1.39,7.073-1.3,1.136.761-2.294.632-2.12,1.2,1.652-.036,3.309-.072,4.947-.106-.014-.926-2.571-1.16-1.961-2.254.592-.509,5.878-.1,6.018-.7-1.927-.029-.338-.468,1.06-.6.024.713,1,1.169,2.926,1.377-.75-1.179-6.275-3.041.14-3.454-.758,0-1.475-.009-1.337-.259-.118-.171-.286-.331-1.312-.259-2.963.463-2.69.872-3.358,1.223-1.638.031-1.3-.479-2.665-.516.017.627-2.925.679-6.013.7-1.369,1.438-.8,3.062-3.4,4.954" fill="#fff"/>
    <path id="Path_158" data-name="Path 158" d="M914.776,60.041c-4.591-.4-3.828-3.355-3.811-.205.371.478,4.853,2.231,2.947,1.374-.261-.495-.008-.893.864-1.169" fill="#fff"/>
    <path id="Path_159" data-name="Path 159" d="M1020.187,50.3c-.345-.523-1.117-.933-2.848-1.086-4.414.274,3.979,3.747-5.388,2.7.405,1.045,2.723,2.271,1.8,1.686.8-.979,2.685-.31,4.953-.107,3.192-1.137-4.028-2.681,1.481-3.194" fill="#fff"/>
    <path id="Path_160" data-name="Path 160" d="M1219.979,27.626c-.2-.363-1.732-.362-1.515-.829,1.883.279,3.125.243,3.615-.366-2.032.041-.943-.776-2.749-.8-2.081.573-2.165,2.58.649,1.995" fill="#fff"/>
    <path id="Path_161" data-name="Path 161" d="M990.116,26.544c-1.267-.284-4.61.006-4.007-.777.692-.018,1.337-.264-.084-.287-.815.85-1.755.361-4.853.393-1.6,1.054,4.257.081,3.976.777-2.1.13,1.931.953-3.442.933-3.184.042-2.119-1.073-5.319-1.033-1.951.425.109,1.624-1.843,2.048,6.2-.45,4.225,3.7,12.619,4.324,1.868-2.476.375-4.457,2.953-6.378" fill="#fff"/>
    <path id="Path_162" data-name="Path 162" d="M997.08,24.955c2.419-.14,2.586.332,3.906.491,2.768-.727-2.175-.721-2.93-1.372.422-.16,5.878-.552,2.288-.625-1.583.05-1.6.4-3.626.366.135.78,2.256.527.362,1.14" fill="#fff"/>
    <path id="Path_163" data-name="Path 163" d="M1161.414,31.76c-.488.72-4.78,2.08-1.635,2.619a7.732,7.732,0,0,1,7.112,2.719c-1.855.089-4.615,0-4.875.391,10.183-.262,5.316,3.87,10.127,4.377-.763-4.628-10.143-8.3-7.826-12.755-4.549-.35-.445.984-3.443.938.818-2.01-4.575-.6-1.971-2.258-7.32.764-4.213,3.812,2.511,3.969" fill="#fff"/>
    <path id="Path_164" data-name="Path 164" d="M1039.9,6.8c8.65.171,3.973,2.364,9.681,2.949-2.933.74-6.118-.23-7.255.729,1.918,1.243,9.442.95,9.588,2.667-2.462.057-1.312.813-4.755.678,1.964,1.213.767,1.261-.515,2.307,8.336.655.716,5.029,10.591,5.806-2.926-2.29-9.253-7.659.884-8.922,1.763.333,4.734.276,4.858-.393-1.872-.21-4.864-.125-4.075-1.061,14.874-1.589,2.217-7.157-2.924-9.13,1.438-.074,3.527-.024,3.615-.365-4.872-.327-6.1-1.645-10.643-2.067-2.278.592-1.783,1.046-.69,1.737-2.056.046-4.123.089-6.185.132-7.046,1.849,3.665,4.158-2.175,4.933" fill="#fff"/>
    <path id="Path_165" data-name="Path 165" d="M1696.216,85.841a5.78,5.78,0,0,0-2.831-.507c-.168.324-4.142.311-3.267.727a131.915,131.915,0,0,1,13.991.355c-4.309-.2-4.9.558-2.12.575a12.783,12.783,0,0,1,4.787-.339c-.194.322-3.646.356-4.612.608,8.856-.022,9.516-1.351,20.518-1.1a45.5,45.5,0,0,1-8.15-.98c-.095.485.4.7-.687.828-1.474-.5-5.045-.031-8.766-.016a27.846,27.846,0,0,0-4.08-.49c-4.125-.112-.656.451-4.783.338" fill="#fff"/>
    <path id="Path_166" data-name="Path 166" d="M1690.386,86.467c-2.171.223-2.817.772,1.774.795-1.729-.438.5-.589-1.774-.795" fill="#fff"/>
    <path id="Path_167" data-name="Path 167" d="M1597.76,75.04c-.165.2-1.893.257-2.2.44,6.121-.333,2.956.09,7.618.169-3.014-.512,1.132-.947.162-1.641-4.918.095-13.116.885-6.717,1.185-.16-.144.344-.352,1.14-.153" fill="#fff"/>
    <path id="Path_168" data-name="Path 168" d="M1687.729,71.217c-3.934.039-7.478.766-4.321,1.016,1.918-.3,6.036-.4,4.321-1.016" fill="#fff"/>
    <path id="Path_169" data-name="Path 169" d="M1694.729,70.439c-3.253-.259-3.258-.673.688-.827-7.166-.226-8.523.407-9.293,1.082a62.75,62.75,0,0,0,8.6-.255" fill="#fff"/>
    <path id="Path_170" data-name="Path 170" d="M1715.206,91.62a.68.68,0,0,0-.334-.3c5.014.448,2.344-.437,4.6-.608a9.966,9.966,0,0,0,4.865-.2c3.193-.031,2.124.5,5.323.473,1.836-.261,2.013-.669,4.4-.879-6.083.181-6.528.2-11.231.018-.53.508-8.3.447-6.981.776-3.386.1-1.482-.487-4.081-.49-.508.211-1.6.367-2.111.576a40.845,40.845,0,0,1,5.036.067c-2.044.187-3.956.387-6.04.571h-5.888c1-.5,6.477-.6,5.2-1.3a38.33,38.33,0,0,0,6.11-.221c.611-.475-5.158-.1-4.174-.626.865-.41,4.539-.1,4.779-.339-2.789-.26-3.937.174-6.28-.048q1.281.623-4.6.607c-1.816-.6,9.519-1.2,1.492-1.522.145.226.294.453.454.676-3.948-.014-4.854.389-6.3-.049,4.934-.334-3.048-.387-4.246-.761-3.766.407-2.4.524-6.883.912.627-.378-5.791.178-5.153-.2.436-.23,9.215-.353,4.607-.609-2.355.391-5.189.143-7.255.371-.347.434,3.283.514-.8.695-4.386-.294,1.427-1.147-.809-1.219a78.069,78.069,0,0,1-8.308.659c-.667-.5-4.212-.62-4.543-1.165,6.908.188,1.032-.758,4.438-.88,5.076.074.193.553,1.948,1.064a37.578,37.578,0,0,1,7.435-.1c-3.575-.535.951-.843,5.841-.625-6.508-.638,2.627-1.357-.38-2.452-6.988.172-2.1-.4-.355-.541-2.219.03-6.976.463-8.678.118-.057-.173,1.448-.209.965-.422-4.7.032-5.585-.438-10.276-.406-.2.11.145.268-1.063.287,1.187-.445.709-1.039,2.828-1.4,6.242.228,17.457-.155,19.446-.811,3.465.185,7.157,1.106,11.71.66-2.255-.094-4.48-.192-4.173-.626,2.152-.067,6.425.3,7.435-.1-3.941-.592-9.655-.088-14.085-.492-.971.254-1.989.5-5.9.491.606-.425-1.608-.474-1.794-.793-8.106-.251-19.371-.084-25.423-.609-.394.485,6.155.366,3.033.779-3.306.043-2.973-.392-6.465-.323-.7-.251-.831-.575-4.081-.49,1.9.286-2.858.552.361.541-3.258.177-4.507.532-8.3.66-.963-1.011-9.957-.724-11.242.016-5.091-.1-6.783-.416-11.793-.794,5.089-.531,7.208-.092,12.382-.17,2.3-1.066-16.206-.556-12.557-.1-3.2-.149-2.5-.438-1.784-.8-3.9.175-2-.421-5.235-.337.565.3.056.513-2.106.574-1.387-.159-1.549-.481-2.931-.641-8.755.332-10.658.16-21.063.288-1.615.278-1.362.727-4.422.879a43.7,43.7,0,0,0-7.523-.034c-.058-.237-.547-.418-1.588-.524-5.234-.084-4.647.35-8.5.39-.107-.392-1.266-.878.521-1.1-2.325.064-2.832-.114-5.041-.066-1.364.44,4.154.7.614.946-3.659.079-4.676-.422-2.924-.643-7.281-.167-14.9-1.891-21.5-.387-.518-.178-1.949-.236-1.6-.525-5.441.269-6.554.163-9.648.541-.432-.188-2.191-.2-2.739-.372-1.294-.368,1.5-.374.79-.693-1.7-.1-3.672-.145-5.687-.149-1-.225-2.825-.225-2.387-.84,4.212-.491,8.191.63,9.92-.214-1.122-.188-2.466-.315-3.757-.455a127.3,127.3,0,0,1,17.374.491c4.2.463,1.073.987,8.264,1.116-.786-.609-2.381-.784.4-1.234-10.091.308-2.918-1.672-7.629-2.079,1.317-.223,5.057-.23,4.6-.61-.9-.271-2.9-.4-4.162-.625,3.47-.568-.31-1.4.776-2.6,1.218-.017,1.533.09,2.554.1-3.4-1.389,3.326-2.837-5.181-4.023.392-.559,3.745-.855,2.711-1.54,3.855-.039,5.824-.246,8.506-.389-15.569-1.707-49.632-.375-49.72,2.317-9.248,1.476-13.725,3.154-11.614,5.072-3.565.245-4.292-.052-7.351.237a1.265,1.265,0,0,1,.412.34c-.572.038-1.041.1-1.018.252a4.56,4.56,0,0,1,.345.5,11.532,11.532,0,0,1-2,.457c-.52-.456.287-.695.241-1.5a19.771,19.771,0,0,0-2.259.781c-.1-.123-.458-.211-1.55-.2-.73.086-1.9.62-.351.774A23.9,23.9,0,0,1,1468,73.7a7.328,7.328,0,0,1,1.445.5c-1.666-.011-.787-.363-2.507-.368-2.083.279-2.178,1.234.64.946-.2-.172-1.732-.166-1.512-.389a9.475,9.475,0,0,0,3.476-.139c1.022.509,1.3,1.119,1.281,1.744-3.388-.2-7.232-.336-12.616-.271-3.657.187-2.922.76-8.219.8.033.164.375.289.869.393-.953,0-1.89.012-2.995.093.91.016,1,.125.817.265-5.379.54-4.7,1.386-1.676,2.292-4.133.2-5.882.1-5.917.491-3.472.2-1.773-.289-4.1-.243a1,1,0,0,1,.372-.568c-3.454-.136-2.318.62-4.784.677-1.733-.87-2.887-1.9-5.765-2.46-.6.36-7.836.753-7.344.443,5.77-.671.62-2.173,1.055-3.175-1.147.552-4.991.312-5.867-.164.2.742,1.634,1.723-3.049,1.511a1.232,1.232,0,0,1,.307-.4h0a.8.8,0,0,0,.068-.128c.344-.007.638-.006,1.075-.025-.3-.066-.632-.134-.969-.2.1-.493-.415-.985-1.171-1.446.317-.037.564-.074.976-.109-.356-.028-.794-.034-1.224-.043-.474-.269-1.008-.526-1.528-.764a70.242,70.242,0,0,1,9.737-.784c-.344-.526-1.127-.937-2.857-1.089-1.19,1.249-6.145.1-11.05.525-.1-1-4.483-.847-5.5-1.6,6-.065,10.032-1.09,13.633-.293.107-1.038,1.447-1.415-.736-2.283,6.9-.438,11.718-1.285,14.12-2.6-2.352-.492-3.686.473-5.13-.464,2.387-.343,1.547-1.3,5.839-1.276,1.68.717-3.423,1.311,1.6,1.116.457-1.68,4.176-2.312,5.186-3.272,2.27.932,11.034,2.713,5,3.917-2.467.044-1.822-.749-5.146-.467-1.158.932,1.181,1.234-.505,2.308a32.91,32.91,0,0,0,6.3.152c.072-.338-.484-.8.96-.883,5.519-.155,6.21,1,6.918,2.151,3.467-1.614,13.165-1.724,19.445-1.57.553-.7,1.375-1.338.522-2.308,5.018.98,2.339-.9,4.59-1.246,2.689.872,3.349.288,4.864-.393,3.194-.041,2.129,1.075,5.329,1.034,1.834-.535,2.006-1.394,4.387-1.818-6.082.336-6.527.373-11.232-.043-.524,1.065-8.29.881-6.974,1.583-3.384.2-1.487-1.036-4.085-1.061-.506.44-1.6.761-2.106,1.2,1.855.007,4.527-.2,5.037.177-3.747.695-6.979,1.495-11.836,1.977-2.064-1.918,6.678-1.731,5.1-3.553,2.368.48,3.568-.205,6.108-.42.606-1-5.158-.254-4.18-1.347.86-.858,4.537-.179,4.775-.68-2.792-.568-3.934.337-6.28-.147q1.289,1.319-4.6,1.245c-1.824-1.266,9.506-2.459,1.476-3.192.147.477.3.954.461,1.427-3.949-.059-4.85.782-6.3-.15,4.93-.666-3.052-.836-4.254-1.631-3.762.828-2.4,1.084-6.874,1.869.622-.792-5.79.331-5.156-.462.434-.479,9.212-.675,4.6-1.246-2.351.8-5.188.262-7.251.727-.342.911,3.288,1.1-.793,1.456-4.388-.649,1.415-2.4-.821-2.569a38.338,38.338,0,0,1-8.3,1.326c-.674-1.057-4.221-1.335-4.557-2.485,6.91.446,1.024-1.588,4.429-1.819,5.077.193.2,1.164,1.959,2.253,3.615-.495,3.279-.683,7.436-.159-3.582-1.152.94-1.767,5.833-1.272-6.515-1.391,2.613-2.836-.405-5.163-6.986.313-2.106-.863-.36-1.14-2.219.047-6.971.923-8.677.186-.06-.366,1.445-.429.96-.881-4.7.033-5.59-.963-10.282-.929-.194.229.149.565-1.059.6,1.182-.929.7-2.181,2.813-2.931,6.244.524,17.457-.2,19.44-1.567,3.467.414,7.168,2.379,11.717,1.472-2.256-.214-4.483-.435-4.179-1.347,2.151-.125,6.427.672,7.434-.159-3.947-1.273-9.657-.253-14.091-1.135-.969.526-1.984,1.042-5.9.99.6-.891-1.612-1.009-1.8-1.682-8.109-.586-19.373-.317-25.432-1.465-.388,1.018,6.16.815,3.041,1.66-3.3.067-2.976-.845-6.468-.724-.7-.535-.837-1.217-4.086-1.062,1.9.616-2.853,1.141.367,1.141-3.257.35-4.5,1.087-8.291,1.328-.974-2.134-9.965-1.594-11.242-.046-5.093-.24-6.788-.925-11.8-1.757,5.084-1.079,7.207-.141,12.381-.268,2.291-2.226-16.214-1.286-12.559-.3-3.2-.335-2.508-.938-1.792-1.688-3.9.34-2.006-.9-5.24-.747.568.642.061,1.079-2.1,1.193-1.389-.345-1.554-1.025-2.937-1.37-8.753.634-10.658.259-21.063.453-1.612.574-1.353,1.519-4.413,1.817a20.957,20.957,0,0,0-7.523-.126c-.061-.5-.551-.883-1.594-1.113-5.234-.216-4.644.7-8.494.759-.111-.826-1.274-1.856.51-2.312-2.324.116-2.834-.261-5.042-.175-1.359.916,4.162,1.5.623,1.994-3.657.14-4.68-.923-2.931-1.374-7.283-.4-14.915-4.087-21.508-.97-.52-.377-1.953-.51-1.6-1.116-5.439.526-6.554.3-9.644,1.068-.433-.4-2.193-.436-2.743-.8-1.3-.783,1.493-.777.783-1.451-9.142-1.187-25.948.735-16.438,3.226-3.771.1-6.385-.127-7.712-.7,1.076-1.042,2.951-1.924,2.72-3.219,11.058-2.436,25.449-4.38,36.882-1.656,4.207,1.005,1.084,2.083,8.276,2.408-.792-1.287-2.389-1.668.391-2.594-10.088.576-2.935-3.539-7.651-4.429,1.315-.459,5.056-.448,4.592-1.25-.907-.578-2.9-.866-4.169-1.344,3.464-1.171-.326-2.952.749-5.474,1.217-.028,1.534.2,2.555.234-3.414-2.948,3.3-5.947-5.224-8.5.388-1.173,3.737-1.771,2.695-3.22a72.9,72.9,0,0,0,8.5-.756c-15.589-3.7-49.64-1.149-49.7,4.515-9.233,3.038-13.693,6.536-11.561,10.588-3.564.489-4.293-.142-7.35.445,1.737,2.119-1.263,3.323-6.157,4.155,3.772.109-.989.634.36,1.14a60.852,60.852,0,0,1,9.472-1.638c.052,3.044,8.2,3.811,4.579,6.506-10.823-.47-14.781-2.8-28.255-2.554-3.655.366-2.914,1.577-8.211,1.616.051.5.556.88,1.59,1.115-8.452,1.005-8.04,3.041-4.543,5.265-4.131.39-5.882.172-5.913.991-3.9.439-1.244-.9-5.141-.464-.215.23-.941.355-2.4.339.071.5.57.88,1.62,1.113-9.869,1.243-9.771,7.829-24.645,4.84-.05-.9-1.514-2.074.411-2.594-7.514-.281-1.1-2.422-6.056-3.316.386,2.019-2.821,2.7,2.525,3.963-7.8-.19-9.21,1.411-12.485-.015-.814,1.455-1.909,1.994-4.121,2.672-1.328-.814-3.008.437-6.2.132.859-1.475-2.854-1.706-5.685-2.175,4.855-.659,5.745-2.085,6.335-3.58-1.486-.013-3.512.125-3.813-.207,2.525-.668,4.28-1.488,2.809-2.932-6.194.329-9.239-.382-13.641.295-3.289-2.187-12.254-.221-17.945-1.13,2.3,1.211-2.305,2.738,3.736,3.448-3.545.648-7.406,1.237-9.276,2.207,10.038-.04,4.772,3.321-1.293,3.761,1.658.892,3.894,1.63,5.769,2.461a22.141,22.141,0,0,0-2.378.337c-5.012-.273-6.33-1.078-6.849-1.861.335.507-.994.691-3.516.648.861.608,3.583,1.781-.6,2.026-1.9-.679-.179-2.134-3.015-1.658,2.9,1.486-4.3-.2-7.167,1.015-3.157-.646-.545-1.677-.816-2.569-3.218-.3-3.835.229-5.057-.176.565-2.927-2.544-4.708-2.1-6.56-.817,1.14-6.055.069-6.469-.724,5.031-.375-1.764-1.4,1.843-2.051,3.191.6,2.184.879,1.866,1.97,3.832.327,4.147-.322,7.539.127,1.625-1.167-5.383.013-5.235-.75.071-.429-.79-1.044.867-1.167,1.961-.017,1.206.705,3.9.491-.384-1.409,2.092-1.466,7.078-1.3.183-.831.917-.7,3.254-1.506-2.376-.014-2.629.379-4.858.393-1.394-.349-1.558-1.026-2.947-1.376,2.11.67,7.262-1.054,3.265-1.5-1.124.317-2.269.626-3.453.935-.613-1.554,5.372-2.023,1.566-2.9-.183.4-2.61.382-3.517.648,2.319-.669-.155-1.783-3.129-1.945.588.659,3.026,1.173-.788,1.456-3.037-1.287-14.983.825-8.29,1.324-1.2-2.3,11.062-.221,2.278-.622-.8.941,4.218.3,4.084,1.063-13.327,1.026-6.921-1.6-15.693-2.249,2.459.643,3.934,1.516.737,2.283-12.109.6-18.65,3.051-18.276,5.274.7-1.325-4.435-1.065-7.874-1.262.737,1.245-2.373,1.175-8.222,1.61,2.525.768,3.135,1.077.649,2,1.712.362,6.106-.006,6.468.722-.6.779-1.638,2.28-5.736,1.558,1.832,1.1-.835,2.746,5.952,3.033a5.6,5.6,0,0,1,2.21-.911c.083.286.172.574.257.856,9.082-1.95,19.078,1.992,9.774,3.235.058-.378-.467-2.068-1.593-1.113q1.467,1.089-3.442.936c1.839-.491-1.016-1.3-4.181-1.345,1.641,1.12-1.511,1.308-3.154,1.791,5.888,1.264,3.737,3.973,9.339,5.83-1.738.106-1.931.513-3.521.652-.253-.449-.158-.995-2.758-.8-.661,1.623,4.178,1.755,4.729,3.057-3.683.268-5.052,1.243.162.571,1.14,1.2.25,2.005-5.625,1.844-2.51-1.6-2.42-.8-4.369-1.915-.648.763-3.734,1.056-4.4,1.815-2.042.04-.949-.774-2.748-.8-4.233,1.3,4.329,1.122,5.6,1.89.137.477.3.952.445,1.427-1.838.092-4.6,0-4.863.392a62.894,62.894,0,0,1,8.866.382c.593.652-3.484.4-3.453.938,1.467.016,1.5.421,1.51.829,2.914.158,8.088.906,7.341-.445-2.952-.332-4.4.836-4.938.107-.869-.882,2.856-.875,4.581-1.25,3.378.585-.375,2.746,1.094,3.424,0-.4,3.074-.368,2.57.234-3.727.287-3.8-.415-7.518-.125-.7,1.325,2.58,1.569,3.3,2.513-1.581.049-1.6.4-3.64.365-2.153-.884,5.182,2.936,7.476,3.859a22.032,22.032,0,0,0-2.381.34c-1.654-.582-5.586-.551-7.795-.983-1.257-.721,3.238-1.645-.634-2,.5,1.168-1.718,1.809-4.229,2.388.157-1.327-6.062-.51-9.217-1.524.943-.651,8.592-2.44,5.547-2.129-.2.228-.941.353-2.392.338-.947-1.591,4.528-2.892-2.411-3.681.835.963,1.732,2.135-.233,3.164-2.687-.2-4.047-.761-4.273-1.631,1-.606,2.154-1.185,3.175-1.795-3.875-.631-10.644.7-13.819-.274-.366.745-3.392,2.35-.333,2.877-.088-.73,1.956-1.043,3.275-1.506,8.267,2.581-8.459,3.512-13.878,3.46a8.445,8.445,0,0,1-4.393,1.817c-5.342.109-2.126-2.108-8.077-1.838-1.407.751,5.184.79,1.594,1.116-2.177-1.182-8.056.556-9.023-.954,1.648-.034,3.309-.071,4.963-.106.453-1.574-10.289-.1-11.609-1.187.674-.295,2.218-1.487-1.689-1.4-3.331-.019,1.655,1.572-3.373,1.222-2.047.041-.938-.776-2.758-.8-.769.857-3.224-.3-6.181.134-.269.743.918,1.751-4.329,2.1,6.8-.216,4.2.713,8.687-.188-1.39.515-3.143,1.535-5.929.99,1.424,2.7-1.4,4.943,1.058,7.158-3.76.426-4.984,1.347-9.459,1.638-3.379.2-1.5-1.037-4.08-1.059-.144.35-1.323.205-2.477.052-.963,1.061-4.2,1.681-6.711,2.442,3.094-1.778-4.89-1.008-5.765-2.458,4.6.075,4.379-2.164,1.65-2.623-3.591,1.083.026,2.375-5.379,2.7.3-.831.109-2.117-4.436-2.2.395,1.5-3.93,2.088-6.514,3.01-1.032-.584,5.993-4.417.911-4.9-2.115,2-6.978,2.971-13.847,3.458-1.482.855,3.847,1.376.534,1.71.481-1.391-6.247,1.058-2.105,1.195-.342-.805,6.186-.665,6.28.152-2.634-.518-5.871.219-8.577.473.435,1.946,1.647,3.686,5.283,4.77-.9-.888,2.332-1.176-.56-1.713,5.064-.949,8.738-.573,11.837-1.978,1.221,1.241.171,1.175,3.11,1.944-2.631.24-4.188-.725-3.616.363,5.887.684,3.359,2.512-.129,3.452,1.315.735,4.444,2.332,5.9,3.768H891.515a16.322,16.322,0,0,1,5.528-1.327c.082.491,1.175.712,2.749.8,1.237-.47,3.844-.677,3.259-1.5-3.019-.049-2.521.58-6.1.418,3.571-.764-1.3-1.325,4.675-.96.175-.677,2.054-1.23-.549-1.713-2.387.339-4.835.666-7.157,1.015,1.846.012,1.362.667,1.609,1.116-3.829-.207-2,.681-2.114,1.194a19.039,19.039,0,0,0-3.626.366c-.156-.889-1.068-1.572-3.114-1.944-.572.909-3.623.56-4.957.106-.209.775-8.058,1.442-4.315,2.1a2.7,2.7,0,0,1,2.388-.337,2.843,2.843,0,0,0-.84.667H676.925a.587.587,0,0,1,.1-.2c-.914-.256-5.866.112-6.382-.205a30.472,30.472,0,0,0,6.013-.418c-.888-.2-4.787.06-5.146-.225,3.381-.66,8.964-.188,10.7-.968-3.023-.013-2.522.329-6.092.261.68-1.007-1.8-1.513,1.1-2.374,6.461.067,6.825-.483,8.223-.928,8.823.135,3.22.335,9.811-.325.342.23-.092.582,1.608.6.847-.353,2.729-.6,7.152-.593.363.229-.1.582,1.6.6-.908-.777,10.124-.346,9.363-1.1a106.52,106.52,0,0,1-16.559-.5c-.078.186.483.438-.967.487-1.58-1-11.648-.691-11.182-2.007.643-.228,4.761-.105,4.786-.394a88.06,88.06,0,0,1-14.546-1.321c1.483-.387,4.811-.588,6.98-.906a15.825,15.825,0,0,0,2.741.424c-1.728-.827,3.791-1.22,7.06-.749.089-.69-4-.737-4.522-1.335,4.045.067,2.322-.447,4.67-.551,6.125.158,2.447,1.1,4.548,1.336,7.592-.6,4.785,1.857,10.033,2.182,9.592-.382-1.327-.982-1.089-1.866.467-.38,4.414-.728,7.246-.439-2.65-.92-6.671-1.622-1.44-2.487-1.881-.353-3.582.344-5.051-.07a8.28,8.28,0,0,1,2.2-.509c.1.269,1.19.381,2.748.424.108-.426.763-.907,5.569-1.195-2.4.117-4.419-.645-1.7-.757.135.207,2.256.106,2.664.269.136.883,1.186,1.624,7.2,1.6,5.807-.729,12.089-1.412,16.156-2.319.933.707-2.261,1-4.414,1.019,3.994.131-2.262.785,2.939.734,2.5-.431,2.862-1.076,8.036-1.236,3.894-.206,2.8.358,5.223.379a40.194,40.194,0,0,1,12.811-1.634c.634-.493-3.578-.239-2.94-.733,4.212-.291,8.19.3,9.92-.17-2.6-.224-6.409-.257-7.9-.649,1.749-.068,1.936-.294,3.537-.376,2.514.065-.22.94,4.174.713,1.095-.377,3.547-.617,3.083-1.152-3.476.152-5.959.684-7.543-.027,2.031-.333,4.974-.572,6.991-.9a152.049,152.049,0,0,1-19.924.185c.746.464-3.845.392-5.9.573-.739-.285,1.121-.966-2.939-.735-.739.584.127.418-3.262.842,6.895-.264,15.352.626,9.49,1.25a31.657,31.657,0,0,0-6.279-.05c-.083.463,5.285.493.449.777-.722-.745-3.891.112-4.87.242-2.076.034-4.124.07-6.185.106.147-.6-4.936-1.263-2.249-1.689,2.831.016.333.855,4.162.714,3.094-.595-.121-.916,2.907-1.462a20.13,20.13,0,0,0-4-.4c-1.867.152-1.547.525-4.666.552-.044-.2,1.452-.243.967-.488l-2.486.042a9.809,9.809,0,0,0-2.387.2c1.442.963,1.089,1.878-3.671,2.263,3.046-.728-.227-.523-.829-1.4q1.873-.03,3.735-.064c-2.005-.46-.59-.514-.65-1.088-3.313.523-2.644.882-8.224.928,3.682.464,2.793,1.319,2.574,2-.379-.651-9.321-.013-8.909-.014,1.928.676,11.019.205,5.7,1.159-.705-.4-3.316-.508-7.711-.336,1.162.506-2.26.55-3.265.839-.371-.4-2.592-.505-4.173-.713-2.2.611-3.571-.68-6.285-.049a7.808,7.808,0,0,1,3.024.889c-5.762.082-7.63,1.334-12.115.68,1.625-.471-.8-.632.513-1.266-3.454-.055-2.319.352-4.785.4a26.823,26.823,0,0,0-5.76-1.314,53.8,53.8,0,0,1-7.345.281c5.77-.4.622-1.191,1.059-1.741a20.369,20.369,0,0,1-5.867-.058c.2.411,1.714.954-3.257.841,1.885-.6-.319-1.215-2.258-1.689,2.954-.191,5.168-.456,9.737-.482-.343-.285-1.126-.505-2.856-.579-1.191.689-6.145.09-11.049.347-.1-.549-4.482-.439-5.5-.847,6-.068,10.033-.651,13.633-.234.107-.568,1.449-.782-.734-1.244,6.906-.277,11.719-.767,14.123-1.5-2.35-.256-3.686.279-5.13-.225,2.387-.2,1.55-.72,5.841-.73,1.68.383-3.424.736,1.6.6.459-.921,4.178-1.287,5.189-1.817,2.269.5,11.031,1.424,5,2.115-2.466.037-1.822-.4-5.146-.228-1.158.516,1.18.668-.507,1.265a60.18,60.18,0,0,0,6.3.049c.072-.185-.483-.437.961-.489,5.519-.114,6.207.514,6.915,1.139,3.468-.9,13.167-1.014,19.445-.963.555-.386,1.378-.739.525-1.265,5.017.508,2.341-.506,4.592-.706a8.708,8.708,0,0,0,4.864-.241c3.194-.04,2.128.576,5.327.536,1.835-.3,2.009-.772,4.389-1.018a100.7,100.7,0,0,1-11.231.038c-.525.585-8.291.527-6.975.9-3.384.126-1.486-.558-4.084-.558-.506.243-1.6.425-2.106.666a35.4,35.4,0,0,1,5.036.07c-3.748.4-6.981.855-11.839,1.144-2.06-1.037,6.68-.982,5.106-1.97,2.365.25,3.567-.131,6.107-.263.608-.548-5.158-.11-4.178-.714.861-.473,4.538-.122,4.776-.4-2.791-.3-3.935.206-6.28-.046q1.285.714-4.6.705c-1.822-.682,9.509-1.4,1.481-1.753.145.26.3.52.458.778-3.949-.011-4.851.453-6.3-.048,4.931-.391-3.052-.441-4.252-.869-3.764.473-2.4.606-6.876,1.059.624-.436-5.79.213-5.156-.224.435-.265,9.213-.419,4.6-.707-2.352.453-5.188.172-7.251.437-.345.5,3.287.586-.795.8-4.388-.331,1.418-1.321-.818-1.4a68.177,68.177,0,0,1-8.3.77c-.672-.574-4.218-.707-4.553-1.334,6.909.206,1.027-.873,4.43-1.019,5.078.079.2.636,1.958,1.222a32.733,32.733,0,0,1,7.434-.127c-3.579-.611.944-.971,5.836-.727-6.514-.726,2.617-1.565-.4-2.821-6.986.209-2.105-.461-.359-.621-2.219.038-6.972.542-8.676.148-.06-.2,1.446-.242.961-.487-4.7.044-5.589-.5-10.28-.452-.194.126.147.308-1.06.332,1.184-.514.7-1.2,2.817-1.618,6.243.253,17.456-.2,19.44-.961,3.467.207,7.165,1.262,11.716.741-2.256-.1-4.483-.213-4.179-.713,2.152-.081,6.427.332,7.435-.127-3.945-.676-9.657-.087-14.088-.545-.971.293-1.987.58-5.9.573.6-.491-1.611-.543-1.8-.91-8.108-.276-19.372-.068-25.428-.663-.39.558,6.158.412,3.039.891-3.3.054-2.975-.446-6.467-.361-.7-.289-.836-.661-4.084-.559,1.9.327-2.854.64.365.622-3.258.209-4.5.619-8.293.771-.97-1.161-9.962-.817-11.241.036-5.092-.1-6.787-.469-11.8-.9,5.085-.617,7.206-.116,12.381-.213,2.293-1.23-16.212-.616-12.558-.1-3.2-.167-2.506-.5-1.791-.914-3.9.207-2-.481-5.238-.38.568.348.06.59-2.1.664-1.388-.182-1.552-.552-2.935-.733-8.754.394-10.658.2-21.063.361-1.613.322-1.355.838-4.415,1.018a38.022,38.022,0,0,0-7.523-.029c-.061-.272-.55-.479-1.592-.6-5.234-.09-4.644.409-8.494.46-.11-.451-1.272-1.008.512-1.267-2.323.076-2.832-.127-5.04-.068-1.361.508,4.159.8.62,1.087-3.658.1-4.679-.479-2.929-.736-7.282-.181-14.909-2.154-21.507-.414-.519-.2-1.951-.268-1.6-.6-5.439.317-6.552.2-9.644.636-.433-.216-2.192-.227-2.742-.424-1.3-.421,1.495-.432.785-.8-9.14-.6-25.948.542-16.441,1.852A38.873,38.873,0,0,1,500.592,53c1.077-.576,2.954-1.068,2.724-1.775,11.061-1.391,25.453-2.532,36.883-1.1,4.205.526,1.081,1.132,8.272,1.271-.791-.7-2.387-.9.394-1.42-10.088.369-2.93-1.92-7.645-2.38,1.316-.259,5.056-.273,4.594-.708-.906-.311-2.9-.458-4.168-.713,3.466-.659-.321-1.612.757-3,1.217-.022,1.533.1,2.554.114-3.41-1.593,3.3-3.269-5.211-4.621.388-.644,3.738-.988,2.7-1.775,3.856-.051,5.823-.291,8.5-.459-15.583-1.941-49.636-.36-49.7,2.737-9.237,1.711-13.7,3.647-11.574,5.851-3.564.287-4.293-.054-7.35.283,1.733,1.15-1.268,1.824-6.162,2.305,3.771.039-.99.352.358.622,1.907-.254,4.5-.653,9.473-.947.049,1.664,8.193,2.04,4.571,3.532-10.822-.2-14.776-1.452-28.25-1.243-3.656.22-2.916.878-8.213.927.05.273.555.479,1.588.6-8.452.6-8.043,1.706-4.55,2.9-4.13.235-5.88.126-5.913.573-3.9.262-1.243-.487-5.14-.225a7.263,7.263,0,0,1-2.4.2c.072.273.57.478,1.619.6-9.87.734-9.781,4.334-24.649,2.78-.049-.492-1.512-1.125.413-1.42-7.513-.113-1.1-1.319-6.051-1.781.384,1.1-2.825,1.494,2.519,2.154-7.8-.062-9.21.821-12.484.058-.815.8-1.911,1.1-4.124,1.484-1.326-.438-3.009.255-6.2.1.861-.811-2.851-.917-5.682-1.158,4.856-.386,5.747-1.171,6.34-1.991a22.012,22.012,0,0,1-3.813-.093c2.525-.379,4.282-.837,2.812-1.618-6.193.214-9.238-.159-13.639.235-3.288-1.178-12.255-.055-17.944-.521,2.3.65-2.308,1.51,3.732,1.865a73.662,73.662,0,0,0-9.279,1.257c10.038-.076,4.769,1.79-1.3,2.063,1.656.479,3.891.87,5.765,1.315-1.234.019-1.393.15-2.378.2-5.012-.122-6.329-.555-6.847-.98.335.276-.994.383-3.516.373.861.328,3.58.955-.608,1.111-1.9-.361-.177-1.166-3.012-.89,2.894.8-4.3-.083-7.169.594-3.155-.336-.542-.914-.812-1.4-3.218-.145-3.835.146-5.057-.069.569-1.6-2.537-2.561-2.089-3.576-.819.628-6.055.071-6.468-.36,5.032-.232-1.761-.754,1.846-1.131,3.19.308,2.183.468,1.863,1.066,3.831.159,4.147-.2,7.539.029,1.626-.647-5.382.036-5.234-.382.072-.235-.788-.566.869-.642,1.96-.021,1.2.379,3.9.247-.382-.768,2.093-.813,7.079-.75.184-.455.918-.386,3.256-.841-2.376.006-2.629.222-4.858.242-1.394-.184-1.557-.553-2.945-.737,2.108.355,7.263-.615,3.265-.84-1.123.179-2.268.354-3.453.53-.611-.847,5.374-1.136,1.57-1.6-.184.222-2.611.223-3.517.373,2.319-.378-.153-.974-3.127-1.046.587.357,3.023.625-.79.8-3.035-.687-14.984.532-8.292.769-1.2-1.25,11.062-.181,2.278-.353-.794.519,4.22.143,4.085.56-13.329.632-6.921-.836-15.69-1.145,2.457.338,3.931.808.734,1.244-12.11.4-18.653,1.768-18.283,2.983.7-.729-4.433-.559-7.872-.648.736.677-2.374.655-8.223.925,2.524.406,3.134.572.646,1.088,1.711.188,6.105-.036,6.466.36-.6.429-1.64,1.255-5.737.883,1.83.594-.838,1.505,5.948,1.625a8.633,8.633,0,0,1,2.211-.51c.083.157.172.313.255.467,9.084-1.115,19.075.986,9.771,1.716.058-.207-.465-1.128-1.592-.6q1.465.588-3.443.53c1.839-.278-1.014-.7-4.179-.712,1.639.6-1.513.723-3.156,1,5.885.659,3.732,2.152,9.331,3.137-1.739.067-1.931.291-3.522.375-.252-.244-.157-.542-2.757-.424-.662.891,4.177.936,4.724,1.646-3.682.166-5.053.706.162.311,1.14.649.247,1.1-5.628,1.038-2.507-.862-2.418-.423-4.365-1.023-.65.421-3.735.6-4.4,1.016-2.041.033-.948-.418-2.747-.424-4.234.735,4.327.59,5.592,1,.137.26.3.518.444.777-1.839.06-4.605.024-4.864.241,4.727-.01,6.607,0,8.864.161.593.353-3.483.237-3.453.531,1.466,0,1.5.223,1.509.446,2.913.07,8.086.451,7.34-.283-2.95-.166-4.4.48-4.937.085-.868-.478,2.857-.494,4.582-.708,3.377.3-.378,1.5,1.09,1.866,0-.217,3.075-.218,2.569.113-3.726.178-3.8-.206-7.517-.027-.7.728,2.578.844,3.3,1.356-1.582.036-1.6.229-3.64.219-2.152-.471,5.178,1.578,7.471,2.07-1.238.02-1.4.151-2.382.2-1.654-.309-5.586-.271-7.794-.5-1.255-.387,3.24-.917-.631-1.088.5.636-1.72,1-4.233,1.328.159-.726-6.06-.246-9.213-.783.944-.361,8.6-1.381,5.549-1.194a7.248,7.248,0,0,1-2.392.2c-.945-.865,4.531-1.606-2.4-2,.832.522,1.728,1.158-.238,1.731-2.686-.1-4.046-.394-4.272-.869,1.005-.336,2.157-.659,3.178-1-3.874-.324-10.645.442-13.817-.075-.368.409-3.395,1.3-.337,1.575-.088-.4,1.956-.581,3.276-.841,8.264,1.366-8.463,1.965-13.881,1.966a12.788,12.788,0,0,1-4.395,1.018c-5.342.088-2.124-1.141-8.075-.961-1.408.418,5.183.4,1.593.6-2.176-.635-8.057.347-9.022-.473l4.963-.085c.455-.863-10.288,0-11.607-.586.674-.165,2.22-.825-1.687-.756-3.33.008,1.654.851-3.375.687-2.047.033-.936-.419-2.757-.425-.77.473-3.223-.148-6.18.107-.27.407.916.952-4.332,1.173,6.8-.155,4.2.367,8.688-.15a16.484,16.484,0,0,1-5.931.574c1.422,1.469-1.4,2.71,1.049,3.907-3.76.254-4.985.764-9.461.947-3.379.125-1.5-.559-4.078-.557a6.555,6.555,0,0,1-2.477.042c-.965.585-4.2.942-6.715,1.371,3.1-.988-4.887-.524-5.76-1.312,4.6.016,4.382-1.207,1.653-1.444-3.593.612.022,1.3-5.382,1.506.3-.456.111-1.158-4.434-1.179.393.82-3.932,1.162-6.517,1.68-1.031-.314,6-2.447.918-2.683-2.118,1.107-6.982,1.661-13.851,1.965-1.483.476,3.844.732.532.932.482-.763-6.248.612-2.106.665-.342-.438,6.185-.4,6.278.049a58.519,58.519,0,0,0-8.577.305c.433,1.062,1.643,2.006,5.277,2.579-.9-.481,2.333-.656-.557-.933,5.064-.547,8.738-.361,11.838-1.146,1.22.672.169.641,3.108,1.046-2.631.145-4.187-.373-3.617.219,5.885.341,3.355,1.355-.133,1.887,2.6.78,12.3,3.365,2.084,3.574.076.215.785.332,1.516.446,1.625.507.133-.439,3.616-.219.1.156,1.119.168,1.429.29-1.588.194-7.252.714-4.514.861,5.807.24,6.523,2.726,12.117,3.561H130a8.519,8.519,0,0,1,2.594-.428c-3.069.221-4.741-.6-6.3-.049a7.963,7.963,0,0,1,1.75.477H120.6c.129-.408.726-.676,1.626-1.034-3.864.5-3.087-.765-4.266-.869-5.027-.069-3.459.527-8.49.458.744.337,3.335.794-.7.954-2.567-.826.611-1.51-2.5-2.153-1.653.349-4.751-.5-6.651-.672a6.588,6.588,0,0,1-2.48.043c-.317.357-2.371.539-3.261.841-2.037-.628-2.8.2-6.1.262-2.048-.082-.17-.768-4.093-.56-1.036.325-3.533,1.25.733,1.245.042-.811,8.439-.248,11.331.12-3.538.316-2.783.874-3.4,1.365H73.43c.49-.532-2.665-.545-1.319-1.117l-8.657.149c-1.383.413,4.014.582.443.778a37.616,37.616,0,0,0-10.186-.3c-1.56-.206-1.654-.368-.365-.622a43.593,43.593,0,0,1-9.9.17c.588.4-.07.678-3.351.687-.043.117.217.188.522.252H29.02c-1.243-.042-2.555-.089-3.889-.153a2.368,2.368,0,0,1-.839.153H0V263H1920V91.62Z" fill="#fff"/>
  </g>
</svg>
